<svg width="20" height="20" viewBox="0 0 20 20" fill="none" xmlns="http://www.w3.org/2000/svg">
<g clip-path="url(#clip0)">
<path d="M13.125 0.976654V17.2267C13.125 17.7435 12.7043 18.1642 12.1875 18.1642H8.75C8.57734 18.1642 8.4375 18.0243 8.4375 17.8517V2.47744C8.2802 2.44247 1.84855 1.01318 0.244531 0.656732C0.100391 0.624701 0 0.496576 0 0.352435C0 0.177826 0.14082 0.0391541 0.3125 0.0391541H12.1875C12.7043 0.0391541 13.125 0.459857 13.125 0.976654Z" fill="#AA7569"/>
<path d="M10.3125 2.47696V18.1637H8.75C8.57734 18.1637 8.4375 18.0238 8.4375 17.8512V2.47696L0 0.606213V0.351917C0 0.177307 0.14082 0.0386353 0.3125 0.0386353H1.58008L9.82344 1.86676C10.1113 1.93047 10.3125 2.18164 10.3125 2.47696Z" fill="#9A6758"/>
<path d="M9.0625 2.47666V19.3364C9.0625 19.7377 8.69012 20.0337 8.30195 19.9466L0.244531 18.156C0.101563 18.1243 0 17.9974 0 17.8509V0.350881C0 0.14928 0.18707 0.00256081 0.380469 0.045803L8.57344 1.86651C8.86133 1.93018 9.0625 2.18135 9.0625 2.47666Z" fill="#D9B3AF"/>
<path d="M19.9086 10.2595L16.3793 13.7884C16.1355 14.0322 15.7395 14.0322 15.4957 13.7884L14.6875 12.9802C14.4437 12.7368 14.4437 12.34 14.6875 12.0966L15.1832 11.6009H10.9375C10.593 11.6009 10.3125 11.3204 10.3125 10.9759V9.1009C10.3125 8.75637 10.593 8.4759 10.9375 8.4759H15.1832L14.6875 7.9802C14.4437 7.73684 14.4437 7.33997 14.6875 7.09661L15.4957 6.2884C15.7395 6.04465 16.1355 6.04465 16.3793 6.2884L19.9086 9.81731C20.0305 9.93954 20.0305 10.1372 19.9086 10.2595Z" fill="#79CB9C"/>
<path d="M19.9086 9.81731L16.3793 6.2884C16.1355 6.04465 15.7395 6.04465 15.4957 6.2884L15.3125 6.47157L18.6586 9.81727C18.7805 9.93954 18.7805 10.1372 18.6586 10.2595L15.3125 13.6052C15.5067 13.7993 15.638 13.9712 15.9375 13.9712C16.0977 13.9712 16.2574 13.9103 16.3793 13.7884L19.9086 10.2595C20.0305 10.1372 20.0305 9.93954 19.9086 9.81731Z" fill="#63AC7D"/>
<path d="M6.5625 10.9759C7.08027 10.9759 7.5 10.5562 7.5 10.0384C7.5 9.52062 7.08027 9.10089 6.5625 9.10089C6.04473 9.10089 5.625 9.52062 5.625 10.0384C5.625 10.5562 6.04473 10.9759 6.5625 10.9759Z" fill="#AA7569"/>
</g>
<defs>
<clipPath id="clip0">
<rect width="20" height="20" fill="white"/>
</clipPath>
</defs>
</svg>
