<svg width="761" height="453" viewBox="0 0 761 453" fill="none" xmlns="http://www.w3.org/2000/svg">
<path d="M701.119 213.084C667.918 189.184 628.156 177.596 591.524 160.288C556.307 143.643 531.264 116.854 499.75 94.8207C448.279 58.791 388.771 31.7612 328.21 15.2664C266.986 -1.40903 192.158 -10.6497 136.352 26.3131C108.901 44.4935 86.5667 72.6972 77.4464 104.543C66.6104 142.439 77.2056 181.147 82.4129 219.013C86.6269 249.775 66.8813 266.752 43.614 284.24C-10.867 325.176 -9.36202 399.252 24.3199 452.348H725.68C767.278 376.858 785.609 273.976 701.119 213.084Z" fill="#B0EFFF"/>
<path d="M637.607 79.0483V423.302C637.607 428.118 633.694 432.001 628.909 432.001H139.663C134.847 432.001 130.964 428.088 130.964 423.302V79.0483C130.964 74.2323 134.877 70.3494 139.663 70.3494H628.909C633.725 70.3494 637.607 74.2323 637.607 79.0483Z" fill="#B6CCFC"/>
<path d="M622.226 99.1249H146.345V387.603H622.226V99.1249Z" fill="white"/>
<path d="M622.226 81.1853H146.345V99.125H622.226V81.1853Z" fill="#161F47"/>
<path d="M622.919 99.8172H145.683V80.5231H622.919V99.8172ZM147.037 98.4327H621.534V81.8475H147.037V98.4327Z" fill="#161F47"/>
<path d="M168.74 94.309C166.452 94.309 164.586 92.4428 164.586 90.1552C164.586 87.8676 166.452 86.0014 168.74 86.0014C171.027 86.0014 172.894 87.8676 172.894 90.1552C172.863 92.4428 170.997 94.309 168.74 94.309ZM168.74 87.386C167.205 87.386 165.97 88.6201 165.97 90.1552C165.97 91.6903 167.205 92.9244 168.74 92.9244C170.275 92.9244 171.509 91.6903 171.509 90.1552C171.509 88.6201 170.245 87.386 168.74 87.386Z" fill="#69CDF5"/>
<path d="M182.556 94.309C180.268 94.309 178.402 92.4428 178.402 90.1552C178.402 87.8676 180.268 86.0014 182.556 86.0014C184.843 86.0014 186.709 87.8676 186.709 90.1552C186.709 92.4428 184.843 94.309 182.556 94.309ZM182.556 87.386C181.021 87.386 179.786 88.6201 179.786 90.1552C179.786 91.6903 181.021 92.9244 182.556 92.9244C184.091 92.9244 185.325 91.6903 185.325 90.1552C185.355 88.6201 184.091 87.386 182.556 87.386Z" fill="#69CDF5"/>
<path d="M196.402 94.309C194.114 94.309 192.248 92.4428 192.248 90.1552C192.248 87.8676 194.114 86.0014 196.402 86.0014C198.689 86.0014 200.555 87.8676 200.555 90.1552C200.555 92.4428 198.689 94.309 196.402 94.309ZM196.402 87.386C194.867 87.386 193.632 88.6201 193.632 90.1552C193.632 91.6903 194.867 92.9244 196.402 92.9244C197.937 92.9244 199.171 91.6903 199.171 90.1552C199.171 88.6201 197.937 87.386 196.402 87.386Z" fill="#69CDF5"/>
<path d="M662.59 426.553H105.981V452.379H662.59V426.553Z" fill="#9BB4EA"/>
<path d="M408.787 414.302H359.784C356.714 414.302 354.216 411.804 354.216 408.734V405.423C354.216 402.352 356.714 399.854 359.784 399.854H408.787C411.857 399.854 414.356 402.352 414.356 405.423V408.734C414.356 411.804 411.857 414.302 408.787 414.302Z" fill="white"/>
<path d="M408.035 414.994H360.537C356.684 414.994 353.524 411.864 353.524 407.981V406.175C353.524 402.322 356.654 399.162 360.537 399.162H408.035C411.888 399.162 415.048 402.292 415.048 406.175V407.981C415.048 411.834 411.888 414.994 408.035 414.994ZM360.537 400.546C357.437 400.546 354.908 403.075 354.908 406.175V407.981C354.908 411.081 357.437 413.61 360.537 413.61H408.035C411.135 413.61 413.663 411.081 413.663 407.981V406.175C413.663 403.075 411.135 400.546 408.035 400.546H360.537Z" fill="#86A7FF"/>
<path d="M390.095 317.35H369.717V356.329H390.095V317.35Z" fill="#ADC3FF"/>
<path d="M421.941 294.173H401.563V356.36H421.941V294.173Z" fill="#D3DFFF"/>
<path d="M453.757 280.508H433.379V356.36H453.757V280.508Z" fill="#ADC3FF"/>
<path d="M485.572 313.497H465.195V356.329H485.572V313.497Z" fill="#D3DFFF"/>
<path d="M517.388 288.755H497.01V356.36H517.388V288.755Z" fill="#ADC3FF"/>
<path d="M549.204 263.08H528.826V356.36H549.204V263.08Z" fill="#D3DFFF"/>
<path d="M327.547 262.448H187.191V271.417H327.547V262.448Z" fill="#86A7FF"/>
<path d="M327.547 271.417H187.191V363.042H327.547V271.417Z" fill="#E5ECFF"/>
<path d="M263.705 305.491C258.408 303.414 252.99 305.039 249.107 308.832C245.585 312.293 245.073 317.169 243.418 321.534C246.849 322.467 249.95 324.514 253.682 323.912C258.558 323.159 258.679 318.614 261.448 315.514C263.826 312.865 266.655 311.149 270.026 310.698C268.581 308.561 266.806 306.695 263.705 305.491Z" fill="#86A7FF"/>
<path d="M303.467 300.735C298.681 301.788 293.655 303.474 290.223 306.965C287.273 309.975 287.394 315.183 285.257 318.343C287.665 319.939 290.374 320.691 293.023 319.276C295.611 317.892 297.176 314.731 299.976 313.377C302.203 312.263 305.424 311.571 307.862 311.149C308.434 311.059 309.006 310.999 309.578 310.909V299.772C307.531 299.982 305.484 300.283 303.467 300.735Z" fill="#86A7FF"/>
<path d="M307.862 311.119C305.424 311.571 302.203 312.263 299.976 313.347C297.176 314.731 295.611 317.862 293.023 319.246C290.374 320.661 287.665 319.939 285.257 318.313C284.294 317.681 283.391 316.929 282.578 316.116C279.297 312.865 278.243 311.029 273.036 310.608C271.983 310.517 270.959 310.577 269.996 310.698C266.625 311.149 263.795 312.865 261.418 315.514C258.648 318.614 258.528 323.159 253.652 323.912C249.919 324.484 246.819 322.467 243.388 321.534C242.003 321.173 240.588 320.962 239.053 321.173C235.441 321.684 233.124 323.852 230.595 325.507C228.849 326.651 226.953 327.554 224.455 327.434C218.826 327.193 211.602 323.942 205.1 323.731V348.774H309.517V310.909C309.006 310.969 308.434 311.029 307.862 311.119Z" fill="#ADC3FF"/>
<path d="M230.625 325.477C230.204 325.116 229.813 324.724 229.482 324.303C226.893 321.082 226.682 317.019 223.823 314.009C218.254 308.139 210.639 310.457 205.131 315.454V323.731C211.602 323.942 218.856 327.163 224.485 327.433C227.013 327.524 228.88 326.621 230.625 325.477Z" fill="#86A7FF"/>
<path d="M648.323 308.169L649.226 308.019C649.768 307.929 650.129 307.417 650.039 306.905L648.955 300.404C648.865 299.862 648.353 299.501 647.841 299.591L646.938 299.742C646.397 299.832 646.035 300.344 646.126 300.855L647.209 307.357C647.27 307.899 647.781 308.26 648.323 308.169Z" fill="#EAA374"/>
<path d="M626.38 222.083L638.45 295.467C638.45 295.467 642.544 298.989 646.878 302.481C649.888 304.889 650.279 310.397 652.326 309.644C654.885 308.32 647.119 293.33 647.119 293.33L644.32 216.876L626.38 222.083Z" fill="#F8B283"/>
<path d="M638.571 294.865C638.571 294.865 637.306 303.173 639.624 303.986C641.821 304.648 642.243 296.792 642.243 296.792L638.571 294.865Z" fill="#F8B283"/>
<path d="M576.113 214.559C576.113 214.559 560.582 246.464 548.06 245.923C537.104 245.441 516.545 204.776 516.545 204.776L524.251 200.201L547.97 227.983L563.17 205.679L576.113 214.559Z" fill="#F8B283"/>
<path d="M605.972 164.352L598.869 173.021C598.869 173.021 599.35 177.385 609.043 175.158C631.136 175.158 634.206 147.195 622.467 143.763C620.902 139.971 613.287 145.389 613.287 145.389L605.972 164.352Z" fill="#EB5D60"/>
<path d="M625.266 436.034L627.704 452.017H657.985C657.594 447.412 651.483 443.469 641.009 440.038L639.474 435.252C636.343 436.486 631.437 437.509 625.266 436.034Z" fill="#1F3C88"/>
<path d="M623.731 425.71L625.297 436.034C631.437 437.539 636.343 436.486 639.504 435.252L635.711 423.392L623.731 425.71Z" fill="#F8B283"/>
<path d="M598.026 434.499L597.243 423.362L583.006 422.61L583.879 434.71C587.039 435.673 592.006 436.425 598.026 434.499Z" fill="#F8B283"/>
<path d="M566.782 451.987H599.26L598.026 434.499C592.006 436.426 587.039 435.673 583.909 434.71L584.27 439.586C572.531 441.091 567.173 447.412 566.782 451.987Z" fill="#1F3C88"/>
<path d="M595.768 189.786L595.889 176.572L595.979 168.355V166.76H612.624V192.706L595.467 192.586L595.768 189.786Z" fill="#F8B283"/>
<path d="M595.949 169.589L611.721 173.713C608.32 177.295 598.959 181.057 595.859 177.806L595.949 169.589Z" fill="#E2896C"/>
<path d="M592.668 150.506L601.247 143.462L616.899 144.997C616.899 144.997 620.601 158.603 618.313 164.261C616.026 169.92 612.594 176.813 600.494 176.482C595.377 176.332 593.18 171.817 592.337 166.579C592.006 164.653 591.885 162.636 591.885 160.74C591.825 155.292 592.668 150.506 592.668 150.506Z" fill="#F8B283"/>
<path d="M596.732 289.929C596.732 289.929 600.615 427.787 600.615 428.509C600.615 428.901 599.982 429.141 599.561 429.141C598.839 429.141 585.655 429.141 582.314 429.141C581.802 429.172 581.742 428.81 581.682 428.509C581.652 428.148 567.234 286.136 567.234 286.136L596.732 289.929Z" fill="#7D69ED"/>
<path d="M573.224 263.2C573.224 263.2 565.849 279.845 567.414 288.003L598.477 292.909C599.892 293.932 600.283 295.859 600.404 296.611L621.293 428.87C621.323 429.171 621.594 429.382 621.895 429.382H640.136C640.497 429.382 640.768 429.081 640.738 428.72C640.738 428.72 633.694 288.966 633.333 284.09C632.581 273.735 627.554 265.428 627.554 265.428C627.554 265.428 573.254 262.899 573.224 263.2Z" fill="#7D69ED"/>
<path d="M616.086 165.736C615.905 166.368 619.879 166.338 620.3 166.218C621.444 165.887 622.437 165.134 623.129 164.141C624.334 162.395 624.635 159.114 622.317 158.061C621.685 157.79 620.962 157.85 620.33 158.031C619.909 158.151 618.012 158.723 617.892 159.144C617.892 159.175 616.086 165.736 616.086 165.736Z" fill="#F8B283"/>
<path d="M619.307 161.492C619.578 160.89 619.999 160.378 620.631 160.047C620.932 159.897 621.353 159.776 621.775 159.927C622.196 160.047 622.407 160.409 622.527 160.74L622.286 160.92C622.046 160.74 621.805 160.649 621.624 160.619C621.444 160.619 621.233 160.679 620.992 160.8C620.541 161.011 620.089 161.402 619.578 161.733L619.307 161.492Z" fill="#E2896C"/>
<path d="M577.678 247.638C573.675 258.143 569.461 269.642 569.461 269.642C567.745 284.029 635.892 279.815 631.136 268.799C631.136 268.799 624.514 258.685 622.768 248.03C621.444 240.083 623.822 232.558 624.604 228.344C625.297 225.274 626.531 224.702 627.012 227.441C627.223 228.615 627.434 229.458 627.584 230.331C628.036 232.799 649.166 232.98 648.173 228.826C647.179 224.672 643.959 197.582 630.865 190.208C627.434 187.649 612.594 186.234 612.594 186.234C612.594 186.234 610.758 190.087 603.865 189.666C596.973 189.244 595.768 185.03 595.768 185.03C595.768 185.03 582.434 184.729 578.702 186.776C568.167 192.977 556.247 210.495 554.712 214.468C553.177 218.441 567.715 229.007 571.508 227.833C573.013 226.809 573.705 225.876 575.692 224.07C576.203 222.836 582.615 234.635 577.678 247.638Z" fill="#D9E8F6"/>
<path d="M623.28 143.312C618.163 132.175 605.039 134.794 598.688 137.593C592.488 140.332 592.608 145.298 586.708 150.777C586.016 151.439 586.046 152.583 586.769 153.185C597.785 162.425 606.725 158.603 613.016 152.041C613.889 151.138 615.394 151.499 615.755 152.703C616.537 155.382 617.44 156.917 618.072 157.73C618.494 158.272 619.216 158.512 619.878 158.272C622.467 157.429 628.728 154.208 623.28 143.312Z" fill="#EB5D60"/>
<path d="M581.11 231.174C581.11 231.174 574.729 228.465 573.795 222.053C572.862 215.702 581.591 207.485 581.591 207.485" fill="#D9E8F6"/>
<path d="M580.959 206.642C581.411 206.251 582.073 206.311 582.464 206.732C582.855 207.184 582.825 207.846 582.374 208.237C581.952 208.599 581.501 209.02 581.11 209.441C580.688 209.863 580.267 210.284 579.876 210.736C579.063 211.609 578.31 212.512 577.588 213.475C576.896 214.438 576.233 215.431 575.662 216.455C575.12 217.508 574.668 218.562 574.397 219.705C574.277 220.277 574.187 220.849 574.217 221.421C574.217 221.993 574.307 222.565 574.458 223.137C574.729 224.281 575.21 225.394 575.842 226.388C576.474 227.381 577.287 228.314 578.19 229.097C579.093 229.909 580.086 230.602 581.17 231.143C580.056 230.662 579.003 230.03 578.009 229.277C577.046 228.525 576.173 227.652 575.421 226.659C574.668 225.665 574.096 224.521 573.735 223.317C573.555 222.715 573.404 222.113 573.344 221.451C573.284 220.819 573.314 220.157 573.404 219.525C573.585 218.261 573.976 217.027 574.488 215.883C574.999 214.739 575.601 213.625 576.264 212.572C576.926 211.518 577.648 210.495 578.431 209.532C578.822 209.05 579.213 208.569 579.605 208.087C580.026 207.605 580.417 207.154 580.869 206.672C580.899 206.672 580.929 206.672 580.959 206.642Z" fill="#4371B7"/>
<path fill-rule="evenodd" clip-rule="evenodd" d="M516.876 205.348C516.876 205.348 508.96 192.194 510.104 191.502C511.248 190.84 513.746 194.03 513.746 194.03C513.746 194.03 510.646 185.03 512 184.94C513.355 184.85 516.575 191.502 516.575 191.502C516.575 191.502 513.325 182.382 515.07 181.689C516.455 181.117 519.585 190.9 519.585 190.9C519.585 190.9 517.207 182.893 518.863 182.622C520.308 182.382 522.926 194.873 522.926 194.873C522.926 194.873 523.528 190.539 525.033 191.713C526.93 193.218 524.281 200.953 524.281 200.953L516.876 205.348Z" fill="#F8B283"/>
<path d="M624.574 143.462C624.092 143.252 626.621 132.295 637.336 135.155C648.052 138.014 640.918 167.091 647.57 169.559C630.835 179.703 627.193 145.569 627.193 145.569" fill="#EB5D60"/>
<path d="M624.815 147.917L622.046 143.131C621.504 142.168 621.835 140.934 622.768 140.392C623.731 139.85 624.965 140.181 625.507 141.114L628.277 145.9C628.818 146.864 628.487 148.098 627.554 148.639C626.591 149.181 625.357 148.85 624.815 147.917Z" fill="#5259DD"/>
<path d="M178.251 141.175H298.802C302.956 141.175 306.327 144.546 306.327 148.7V216.515C306.327 220.669 302.956 224.04 298.802 224.04H178.251C174.097 224.04 170.726 220.669 170.726 216.515V148.7C170.726 144.546 174.097 141.175 178.251 141.175Z" fill="#F6F5F5"/>
<path d="M233.485 189.515C233.485 203.03 222.528 213.986 209.013 213.986C195.499 213.986 184.542 203.03 184.542 189.515C184.542 176 195.499 165.044 209.013 165.044C222.528 165.044 233.485 176 233.485 189.515ZM193.693 189.515C193.693 197.973 200.555 204.836 209.013 204.836C217.472 204.836 224.334 197.973 224.334 189.515C224.334 181.057 217.472 174.194 209.013 174.194C200.555 174.194 193.693 181.057 193.693 189.515Z" fill="#584CCC"/>
<path d="M191.706 206.823C189.418 204.535 187.612 201.856 186.378 198.876C185.144 195.896 184.512 192.736 184.512 189.515C184.512 186.295 185.144 183.134 186.378 180.154C187.612 177.174 189.418 174.495 191.706 172.208C193.994 169.92 196.672 168.114 199.652 166.88C202.632 165.646 205.793 165.014 209.013 165.014C212.234 165.014 215.395 165.646 218.375 166.88C221.355 168.114 224.033 169.92 226.321 172.208L219.85 178.679C218.435 177.265 216.749 176.121 214.883 175.368C213.017 174.586 211.03 174.194 209.013 174.194C206.997 174.194 205.01 174.586 203.144 175.368C201.278 176.151 199.592 177.265 198.177 178.679C196.763 180.094 195.619 181.78 194.866 183.646C194.084 185.512 193.693 187.499 193.693 189.515C193.693 191.532 194.084 193.519 194.866 195.385C195.649 197.251 196.763 198.937 198.177 200.351L191.706 206.823Z" fill="#86A7FF"/>
<path d="M273.668 178.86H241.01V186.385H273.668V178.86Z" fill="#69CDF5"/>
<path d="M296.273 191.412H241.01V198.937H296.273V191.412Z" fill="#69CDF5"/>
<path d="M176.987 141.175H300.066C303.527 141.175 306.357 143.974 306.357 147.466V152.492C306.357 155.954 303.558 158.783 300.066 158.783H176.987C173.526 158.783 170.696 155.984 170.696 152.492V147.466C170.726 143.974 173.526 141.175 176.987 141.175Z" fill="#161F47"/>
<path d="M178.251 152.492C179.636 152.492 180.78 151.379 180.78 149.964C180.78 148.579 179.666 147.435 178.251 147.435C176.867 147.435 175.723 148.549 175.723 149.964C175.723 151.348 176.867 152.492 178.251 152.492Z" fill="#69CDF5"/>
<path d="M185.776 152.492C187.161 152.492 188.305 151.379 188.305 149.964C188.305 148.579 187.191 147.435 185.776 147.435C184.392 147.435 183.248 148.549 183.248 149.964C183.278 151.348 184.392 152.492 185.776 152.492Z" fill="#69CDF5"/>
<path d="M194.565 152.492C195.95 152.492 197.094 151.379 197.094 149.964C197.094 148.579 195.98 147.435 194.565 147.435C193.181 147.435 192.037 148.549 192.037 149.964C192.067 151.348 193.181 152.492 194.565 152.492Z" fill="#69CDF5"/>
<path d="M158.054 306.333H83.2557C82.142 306.333 81.239 305.43 81.239 304.317V229.518C81.239 228.404 82.142 227.501 83.2557 227.501H158.054C159.168 227.501 160.071 228.404 160.071 229.518V304.317C160.041 305.43 159.138 306.333 158.054 306.333Z" fill="#FBC343"/>
<path d="M110.677 263.922L99.7204 267.685L110.677 271.447V277.588L92.2255 270.906V264.464L110.677 257.782V263.922Z" fill="white"/>
<path d="M123.168 249.896H130.392L118.443 283.999H111.219L123.168 249.896Z" fill="white"/>
<path d="M149.054 264.464V270.906L130.603 277.618V271.478L141.559 267.715L130.603 263.953V257.812L149.054 264.464Z" fill="white"/>
<path d="M503.542 221.963H415.349C413.362 221.963 411.737 220.338 411.737 218.351V143.492C411.737 141.506 413.362 139.88 415.349 139.88H503.542C505.529 139.88 507.154 141.506 507.154 143.492V218.351C507.154 220.338 505.529 221.963 503.542 221.963Z" fill="#F6F5F5"/>
<path d="M436.239 153.215V154.389L431.994 156.014V154.9L434.974 153.817L431.994 152.733V151.619L436.239 153.215Z" fill="#161F47"/>
<path d="M428.412 151.589V152.703L425.433 153.787L428.412 154.87V155.984L424.168 154.359V153.185L428.412 151.589Z" fill="#161F47"/>
<path d="M498.07 213.625V214.799L493.826 216.425V215.311L496.806 214.227L493.826 213.144V212.03L498.07 213.625Z" fill="#161F47"/>
<path d="M490.244 212V213.114L487.264 214.197L490.244 215.281V216.395L486 214.769V213.595L490.244 212Z" fill="#161F47"/>
<path d="M458.061 162.907H430.158V168.024H458.061V162.907Z" fill="#ADC3FF"/>
<path d="M475.97 162.907H462.004V168.024H475.97V162.907Z" fill="#ADC3FF"/>
<path d="M498.395 162.907H479.161V168.024H498.395V162.907Z" fill="#D3DFFF"/>
<path d="M443.192 172.027H430.158V177.144H443.192V172.027Z" fill="#ADC3FF"/>
<path d="M468.957 172.027H446.713V177.144H468.957V172.027Z" fill="#ADC3FF"/>
<path d="M498.395 172.027H472.599V177.144H498.395V172.027Z" fill="#D3DFFF"/>
<path d="M447.315 181.147H430.158V186.264H447.315V181.147Z" fill="#ADC3FF"/>
<path d="M482.352 181.147H450.085V186.264H482.352V181.147Z" fill="#ADC3FF"/>
<path d="M498.395 181.147H485.813V186.264H498.395V181.147Z" fill="#D3DFFF"/>
<path d="M451.77 190.268H430.158V195.385H451.77V190.268Z" fill="#ADC3FF"/>
<path d="M475.94 190.268H454.961V195.385H475.94V190.268Z" fill="#ADC3FF"/>
<path d="M498.395 190.268H479.161V195.385H498.395V190.268Z" fill="#D3DFFF"/>
<path d="M439.64 199.388H430.158V204.505H439.64V199.388Z" fill="#ADC3FF"/>
<path d="M461.613 199.388H442.83V204.505H461.613V199.388Z" fill="#ADC3FF"/>
<path d="M498.395 199.388H464.532V204.505H498.395V199.388Z" fill="#D3DFFF"/>
<path d="M421.369 168.024C422.782 168.024 423.927 166.878 423.927 165.465C423.927 164.052 422.782 162.907 421.369 162.907C419.956 162.907 418.81 164.052 418.81 165.465C418.81 166.878 419.956 168.024 421.369 168.024Z" fill="#161F47"/>
<path d="M421.369 177.144C422.782 177.144 423.927 175.999 423.927 174.586C423.927 173.173 422.782 172.027 421.369 172.027C419.956 172.027 418.81 173.173 418.81 174.586C418.81 175.999 419.956 177.144 421.369 177.144Z" fill="#161F47"/>
<path d="M421.369 186.264C422.782 186.264 423.927 185.119 423.927 183.706C423.927 182.293 422.782 181.147 421.369 181.147C419.956 181.147 418.81 182.293 418.81 183.706C418.81 185.119 419.956 186.264 421.369 186.264Z" fill="#161F47"/>
<path d="M421.369 195.385C422.782 195.385 423.927 194.239 423.927 192.826C423.927 191.413 422.782 190.268 421.369 190.268C419.956 190.268 418.81 191.413 418.81 192.826C418.81 194.239 419.956 195.385 421.369 195.385Z" fill="#161F47"/>
<path d="M421.369 204.505C422.782 204.505 423.927 203.36 423.927 201.947C423.927 200.534 422.782 199.388 421.369 199.388C419.956 199.388 418.81 200.534 418.81 201.947C418.81 203.36 419.956 204.505 421.369 204.505Z" fill="#161F47"/>
<path d="M506.04 145.84H412.851C412.249 145.84 411.737 145.328 411.737 144.726V132.205C411.737 131.603 412.249 131.091 412.851 131.091H506.04C506.642 131.091 507.154 131.603 507.154 132.205V144.726C507.154 145.328 506.672 145.84 506.04 145.84Z" fill="#584CCC"/>
<path d="M503.301 138.436C503.301 140.512 501.616 142.168 499.569 142.168C497.492 142.168 495.836 140.482 495.836 138.436C495.836 136.359 497.522 134.703 499.569 134.703C501.646 134.703 503.301 136.389 503.301 138.436Z" fill="#D43B5E"/>
<path d="M428.924 270.544H372.306C371.313 270.544 370.5 269.732 370.5 268.738V212.09C370.5 211.097 371.313 210.284 372.306 210.284H428.954C429.948 210.284 430.76 211.097 430.76 212.09V268.738C430.73 269.762 429.917 270.544 428.924 270.544Z" fill="#161F47"/>
<path d="M381.005 248.752C379.62 248.03 378.567 247.007 377.784 245.712C377.002 244.418 376.61 242.943 376.61 241.288C376.61 239.632 377.002 238.157 377.784 236.863C378.567 235.569 379.65 234.545 381.005 233.823C382.39 233.1 383.925 232.739 385.64 232.739C387.145 232.739 388.5 233.01 389.704 233.552C390.908 234.094 391.901 234.846 392.714 235.87L389.764 238.549C388.711 237.254 387.416 236.622 385.881 236.622C384.978 236.622 384.196 236.833 383.503 237.224C382.811 237.615 382.269 238.157 381.878 238.88C381.487 239.602 381.306 240.415 381.306 241.348C381.306 242.281 381.487 243.094 381.878 243.816C382.269 244.538 382.811 245.08 383.503 245.472C384.196 245.863 385.008 246.074 385.881 246.074C387.386 246.074 388.68 245.441 389.764 244.147L392.714 246.826C391.901 247.819 390.908 248.602 389.704 249.144C388.5 249.686 387.145 249.956 385.64 249.956C383.925 249.836 382.359 249.475 381.005 248.752Z" fill="white"/>
<path d="M396.506 249.354C395.242 249.023 394.249 248.601 393.436 248.03L394.971 244.598C395.694 245.08 396.567 245.471 397.53 245.772C398.493 246.073 399.456 246.224 400.389 246.224C402.165 246.224 403.068 245.772 403.068 244.869C403.068 244.388 402.827 244.056 402.316 243.816C401.804 243.575 400.991 243.364 399.847 243.093C398.613 242.822 397.59 242.551 396.747 242.22C395.904 241.919 395.212 241.438 394.61 240.745C394.008 240.083 393.707 239.15 393.707 238.006C393.707 237.013 393.978 236.11 394.52 235.297C395.062 234.485 395.874 233.853 396.988 233.371C398.072 232.889 399.426 232.679 400.991 232.679C402.075 232.679 403.128 232.799 404.182 233.04C405.235 233.281 406.168 233.642 406.951 234.124L405.506 237.585C403.941 236.742 402.406 236.321 400.931 236.321C399.998 236.321 399.336 236.471 398.914 236.742C398.493 237.013 398.282 237.374 398.282 237.826C398.282 238.277 398.523 238.608 399.035 238.819C399.547 239.03 400.329 239.271 401.443 239.511C402.707 239.782 403.73 240.053 404.543 240.384C405.356 240.685 406.078 241.167 406.68 241.829C407.282 242.491 407.583 243.394 407.583 244.538C407.583 245.531 407.312 246.404 406.77 247.217C406.229 248.03 405.386 248.662 404.302 249.143C403.219 249.625 401.864 249.866 400.299 249.866C399.035 249.836 397.741 249.685 396.506 249.354Z" fill="white"/>
<path d="M411.707 249.354C410.443 249.023 409.45 248.601 408.637 248.03L410.172 244.598C410.894 245.08 411.767 245.471 412.73 245.772C413.694 246.073 414.657 246.224 415.59 246.224C417.366 246.224 418.269 245.772 418.269 244.869C418.269 244.388 418.028 244.056 417.516 243.816C417.004 243.575 416.192 243.364 415.048 243.093C413.814 242.822 412.791 242.551 411.948 242.22C411.105 241.919 410.413 241.438 409.811 240.745C409.209 240.083 408.908 239.15 408.908 238.006C408.908 237.013 409.179 236.11 409.72 235.297C410.262 234.485 411.075 233.853 412.189 233.371C413.272 232.889 414.627 232.679 416.192 232.679C417.275 232.679 418.329 232.799 419.382 233.04C420.436 233.281 421.369 233.642 422.151 234.124L420.707 237.585C419.142 236.742 417.606 236.321 416.132 236.321C415.199 236.321 414.536 236.471 414.115 236.742C413.694 237.013 413.483 237.374 413.483 237.826C413.483 238.277 413.724 238.608 414.235 238.819C414.747 239.03 415.53 239.271 416.643 239.511C417.907 239.782 418.931 240.053 419.744 240.384C420.556 240.685 421.279 241.167 421.881 241.829C422.483 242.491 422.784 243.394 422.784 244.538C422.784 245.531 422.513 246.404 421.971 247.217C421.429 248.03 420.586 248.662 419.503 249.143C418.419 249.625 417.065 249.866 415.5 249.866C414.235 249.836 412.971 249.685 411.707 249.354Z" fill="white"/>
<rect x="492.684" y="210" width="1.34986" height="8" transform="rotate(19.6061 492.684 210)" fill="#161F47"/>
</svg>
