<svg width="38" height="36" viewBox="0 0 38 36" fill="none" xmlns="http://www.w3.org/2000/svg">
<path d="M17.2011 19.84L16.4372 18.944C15.6572 18.048 15.6897 16.72 16.4698 15.84C15.5597 15.376 14.6495 15.008 13.8532 14.688C9.96902 13.136 8.50636 11.792 8.50636 9.99999C8.50636 8.68799 9.83901 7.53599 11.5942 7.53599C14.5845 7.53599 18.1762 10.192 18.615 10.432C18.7938 10.528 19.2813 10.784 19.9314 10.704C20.7927 10.608 21.2965 10.032 21.3941 9.90399L24.1569 6.38399C24.3519 6.04799 23.0842 4.87999 22.4992 4.52799C21.0203 3.47199 17.1036 0.911987 12.0005 0.911987C4.4434 0.911987 0.672974 5.74399 0.672974 10.528C0.672974 16.32 5.97107 19.568 10.1965 21.2C13.5282 22.512 15.2509 24.048 15.2509 26.08C15.2509 27.776 13.8207 28.976 11.8705 28.976C8.63637 28.976 5.09347 26.416 4.89845 26.32C4.55716 26.08 3.61455 25.984 3.22451 26.608L0.916751 30.624C0.526707 31.296 0.672974 31.488 1.16053 31.984C2.2819 33.088 5.8248 35.696 12.1955 35.696C18.2249 35.696 22.2554 32.176 23.4255 28.128C21.329 25.376 19.2651 22.608 17.2011 19.84Z" fill="#F7F9FE"/>
<path d="M37.142 33.6L25.6194 18.832C24.9369 17.952 24.9531 16.752 25.6519 15.888L36.1181 2.992C36.2969 2.768 36.3132 2.448 36.1831 2.176C36.0531 1.92 35.8093 1.776 35.5168 1.776H29.3411C29.1623 1.776 28.8211 1.968 28.6748 2.128L17.8511 15.424C17.7861 15.488 17.7373 15.568 17.6723 15.632L17.0872 16.208L17.0547 16.24C16.4209 16.864 16.3721 17.872 16.9572 18.544L17.721 19.44C17.7536 19.488 17.7861 19.52 17.8186 19.568L23.588 27.296L29.1136 34.688C29.1786 34.752 29.4874 34.88 29.7149 34.88H36.4919C36.8007 34.88 37.0607 34.72 37.1908 34.448C37.337 34.128 37.3208 33.824 37.142 33.6Z" fill="#F7F9FE"/>
</svg>
