<svg width="222" height="48" viewBox="0 0 222 48" fill="none" xmlns="http://www.w3.org/2000/svg">
<path d="M37.9806 26.368L38.6632 25.216C38.8094 24.96 39.1345 24.96 39.3132 25.088C39.4108 25.136 40.9384 26.24 42.1736 26.24C43.1649 26.24 43.8963 25.6 43.8963 24.8C43.8963 23.856 43.0837 23.2 41.491 22.56C39.7195 21.856 37.9318 20.736 37.9318 18.528C37.9318 16.864 39.1832 14.944 42.1898 14.944C44.1238 14.944 45.6027 15.92 45.9765 16.192C46.1715 16.304 46.2203 16.624 46.0903 16.8L45.3752 17.856C45.2289 18.08 44.9364 18.224 44.7088 18.08C44.5626 17.984 43.1162 17.056 42.076 17.056C41.0034 17.056 40.4184 17.76 40.4184 18.368C40.4184 19.248 41.1172 19.84 42.6449 20.448C44.4813 21.168 46.5941 22.256 46.5941 24.656C46.5941 26.576 44.9039 28.352 42.2386 28.352C39.8495 28.352 38.4519 27.248 38.0781 26.896C37.8993 26.752 37.8018 26.656 37.9806 26.368Z" fill="#F7F9FE"/>
<path d="M54.85 14.96C58.6367 14.96 61.6595 17.952 61.6595 21.68C61.6595 25.408 58.6367 28.368 54.85 28.368C51.0634 28.368 48.0568 25.408 48.0568 21.68C48.0568 17.952 51.0634 14.96 54.85 14.96ZM54.85 25.952C57.239 25.952 59.2055 24.032 59.2055 21.68C59.2055 19.328 57.239 17.376 54.85 17.376C52.461 17.376 50.5108 19.328 50.5108 21.68C50.527 24.032 52.4773 25.952 54.85 25.952Z" fill="#F7F9FE"/>
<path d="M64.146 15.504C64.146 15.312 64.2923 15.152 64.5035 15.152H66.2425C66.4375 15.152 66.6 15.312 66.6 15.504V25.952H71.4268C71.6381 25.952 71.7843 26.112 71.7843 26.304V27.824C71.7843 28.016 71.6381 28.176 71.4268 28.176H64.5035C64.2923 28.176 64.146 28.016 64.146 27.824V15.504Z" fill="#F7F9FE"/>
<path d="M73.3282 15.504C73.3282 15.312 73.4908 15.152 73.6858 15.152H75.4897C75.701 15.152 75.8473 15.312 75.8473 15.504V23.12C75.8473 24.704 76.9524 25.952 78.5938 25.952C80.2353 25.952 81.3567 24.704 81.3567 23.136V15.504C81.3567 15.312 81.5029 15.152 81.7142 15.152H83.5182C83.7132 15.152 83.8757 15.312 83.8757 15.504V23.248C83.8757 26.08 81.5842 28.368 78.5938 28.368C75.6198 28.368 73.3282 26.08 73.3282 23.248V15.504Z" fill="#F7F9FE"/>
<path d="M92.993 14.96C94.9107 14.96 96.2921 15.552 97.576 16.688C97.7385 16.832 97.7385 17.056 97.5922 17.216L96.4384 18.384C96.3083 18.528 96.1133 18.528 95.9671 18.384C95.1707 17.696 94.1143 17.28 93.058 17.28C90.6365 17.28 88.8325 19.28 88.8325 21.616C88.8325 23.952 90.6527 25.92 93.0742 25.92C94.2119 25.92 95.1707 25.488 95.9671 24.864C96.1133 24.736 96.3246 24.752 96.4384 24.864L97.6085 26.064C97.7547 26.192 97.7222 26.432 97.5922 26.56C96.3083 27.792 94.6832 28.368 92.993 28.368C89.2063 28.368 86.1672 25.408 86.1672 21.68C86.1672 17.952 89.2063 14.96 92.993 14.96Z" fill="#F7F9FE"/>
<path d="M100.062 15.504C100.062 15.312 100.225 15.152 100.42 15.152H102.175C102.37 15.152 102.533 15.312 102.533 15.504V27.84C102.533 28.032 102.37 28.192 102.175 28.192H100.42C100.225 28.192 100.062 28.032 100.062 27.84V15.504Z" fill="#F7F9FE"/>
<path d="M111.845 14.96C115.632 14.96 118.655 17.952 118.655 21.68C118.655 25.408 115.632 28.368 111.845 28.368C108.058 28.368 105.052 25.408 105.052 21.68C105.052 17.952 108.058 14.96 111.845 14.96ZM111.845 25.952C114.234 25.952 116.201 24.032 116.201 21.68C116.201 19.328 114.234 17.376 111.845 17.376C109.456 17.376 107.506 19.328 107.506 21.68C107.506 24.032 109.456 25.952 111.845 25.952Z" fill="#F7F9FE"/>
<path d="M121.125 15.296C121.125 15.104 121.287 14.96 121.482 14.96H121.954L129.82 23.2H129.836V15.504C129.836 15.312 129.982 15.152 130.193 15.152H131.932C132.127 15.152 132.29 15.312 132.29 15.504V28.048C132.29 28.24 132.127 28.384 131.932 28.384H131.477L123.563 19.824H123.546V27.84C123.546 28.032 123.4 28.192 123.189 28.192H121.466C121.271 28.192 121.109 28.032 121.109 27.84V15.296H121.125Z" fill="#F7F9FE"/>
<path d="M135.752 15.504C135.752 15.312 135.898 15.152 136.109 15.152H143.829C144.04 15.152 144.186 15.312 144.186 15.504V17.024C144.186 17.216 144.04 17.376 143.829 17.376H138.222V20.432H142.902C143.097 20.432 143.26 20.592 143.26 20.784V22.336C143.26 22.544 143.097 22.688 142.902 22.688H138.222V25.952H143.829C144.04 25.952 144.186 26.112 144.186 26.304V27.824C144.186 28.016 144.04 28.176 143.829 28.176H136.125C135.914 28.176 135.768 28.016 135.768 27.824V15.504H135.752Z" fill="#F7F9FE"/>
<path d="M146.104 26.368L146.787 25.216C146.933 24.96 147.258 24.96 147.437 25.088C147.534 25.136 149.062 26.24 150.297 26.24C151.288 26.24 152.02 25.6 152.02 24.8C152.02 23.856 151.207 23.2 149.614 22.56C147.843 21.856 146.055 20.736 146.055 18.528C146.055 16.864 147.307 14.944 150.313 14.944C152.247 14.944 153.726 15.92 154.1 16.192C154.295 16.304 154.344 16.624 154.214 16.8L153.499 17.856C153.352 18.08 153.06 18.224 152.832 18.08C152.686 17.984 151.24 17.056 150.199 17.056C149.127 17.056 148.542 17.76 148.542 18.368C148.542 19.248 149.241 19.84 150.768 20.448C152.605 21.168 154.717 22.256 154.717 24.656C154.717 26.576 153.027 28.352 150.362 28.352C147.973 28.352 146.575 27.248 146.202 26.896C146.039 26.752 145.942 26.656 146.104 26.368Z" fill="#F7F9FE"/>
<path d="M161.332 15.584C161.332 15.344 161.527 15.136 161.787 15.136H163.445C163.689 15.136 163.9 15.344 163.9 15.584V20.608L168.662 15.312C168.743 15.216 168.857 15.12 169.019 15.12H170.904C171.262 15.12 171.457 15.504 171.213 15.792L166.273 21.264L171.571 27.504C171.766 27.744 171.603 28.16 171.229 28.16H169.182C168.987 28.16 168.873 28.08 168.84 28.032L163.9 22.032V27.712C163.9 27.952 163.689 28.16 163.445 28.16H161.787C161.527 28.16 161.332 27.952 161.332 27.712V15.584Z" fill="#F7F9FE"/>
<path d="M173.375 15.504C173.375 15.312 173.537 15.152 173.732 15.152H175.536C175.747 15.152 175.894 15.312 175.894 15.504V23.12C175.894 24.704 176.999 25.952 178.64 25.952C180.282 25.952 181.403 24.704 181.403 23.136V15.504C181.403 15.312 181.549 15.152 181.761 15.152H183.565C183.76 15.152 183.922 15.312 183.922 15.504V23.248C183.922 26.08 181.631 28.368 178.64 28.368C175.666 28.368 173.375 26.08 173.375 23.248V15.504Z" fill="#F7F9FE"/>
<path d="M185.271 27.696L191.154 15.152C191.203 15.04 191.3 14.944 191.479 14.944H191.674C191.869 14.944 191.934 15.04 191.999 15.152L197.834 27.696C197.947 27.936 197.801 28.176 197.509 28.176H195.867C195.591 28.176 195.445 28.064 195.315 27.808L194.388 25.792H188.733L187.806 27.808C187.725 28 187.562 28.176 187.254 28.176H185.612C185.303 28.192 185.157 27.936 185.271 27.696ZM193.446 23.728L191.56 19.632H191.512L189.659 23.728H193.446Z" fill="#F7F9FE"/>
<path d="M199.54 15.504C199.54 15.312 199.686 15.152 199.898 15.152H201.637C201.832 15.152 201.994 15.312 201.994 15.504V25.952H206.821C207.032 25.952 207.178 26.112 207.178 26.304V27.824C207.178 28.016 207.032 28.176 206.821 28.176H199.898C199.686 28.176 199.54 28.016 199.54 27.824V15.504Z" fill="#F7F9FE"/>
<path d="M209.096 15.504C209.096 15.312 209.259 15.152 209.454 15.152H211.209C211.404 15.152 211.566 15.312 211.566 15.504V27.84C211.566 28.032 211.404 28.192 211.209 28.192H209.454C209.259 28.192 209.096 28.032 209.096 27.84V15.504Z" fill="#F7F9FE"/>
<path d="M20.2011 23.84L19.4372 22.944C18.6572 22.048 18.6897 20.72 19.4698 19.84C18.5597 19.376 17.6495 19.008 16.8532 18.688C12.969 17.136 11.5064 15.792 11.5064 14C11.5064 12.688 12.839 11.536 14.5942 11.536C17.5845 11.536 21.1762 14.192 21.615 14.432C21.7938 14.528 22.2813 14.784 22.9314 14.704C23.7927 14.608 24.2965 14.032 24.3941 13.904L27.1569 10.384C27.3519 10.048 26.0842 8.87999 25.4992 8.52799C24.0203 7.47199 20.1036 4.91199 15.0005 4.91199C7.4434 4.91199 3.67297 9.74399 3.67297 14.528C3.67297 20.32 8.97107 23.568 13.1965 25.2C16.5282 26.512 18.2509 28.048 18.2509 30.08C18.2509 31.776 16.8207 32.976 14.8705 32.976C11.6364 32.976 8.09347 30.416 7.89845 30.32C7.55716 30.08 6.61455 29.984 6.22451 30.608L3.91675 34.624C3.52671 35.296 3.67297 35.488 4.16053 35.984C5.2819 37.088 8.8248 39.696 15.1955 39.696C21.2249 39.696 25.2554 36.176 26.4255 32.128C24.329 29.376 22.2651 26.608 20.2011 23.84Z" fill="#F7F9FE"/>
<path d="M40.142 37.6L28.6194 22.832C27.9369 21.952 27.9531 20.752 28.6519 19.888L39.1181 6.992C39.2969 6.768 39.3132 6.448 39.1831 6.176C39.0531 5.92 38.8093 5.776 38.5168 5.776H32.3411C32.1623 5.776 31.8211 5.968 31.6748 6.128L20.8511 19.424C20.7861 19.488 20.7373 19.568 20.6723 19.632L20.0872 20.208L20.0547 20.24C19.4209 20.864 19.3721 21.872 19.9572 22.544L20.721 23.44C20.7536 23.488 20.7861 23.52 20.8186 23.568L26.588 31.296L32.1136 38.688C32.1786 38.752 32.4874 38.88 32.7149 38.88H39.4919C39.8007 38.88 40.0607 38.72 40.1908 38.448C40.337 38.128 40.3208 37.824 40.142 37.6Z" fill="#F7F9FE"/>
</svg>
