<svg width="312" height="53" viewBox="0 0 312 53" fill="none" xmlns="http://www.w3.org/2000/svg">
<path d="M51.7997 32.552L52.8205 30.824C53.0392 30.44 53.5253 30.44 53.7927 30.632C53.9385 30.704 56.2231 32.36 58.0702 32.36C59.5528 32.36 60.6465 31.4 60.6465 30.2C60.6465 28.784 59.4313 27.8 57.0495 26.84C54.4003 25.784 51.7268 24.104 51.7268 20.792C51.7268 18.296 53.5982 15.416 58.0946 15.416C60.9868 15.416 63.1985 16.88 63.7575 17.288C64.0492 17.456 64.1221 17.936 63.9276 18.2L62.8582 19.784C62.6395 20.12 62.202 20.336 61.8618 20.12C61.643 19.976 59.4799 18.584 57.9244 18.584C56.3203 18.584 55.4454 19.64 55.4454 20.552C55.4454 21.872 56.4905 22.76 58.7751 23.672C61.5215 24.752 64.6811 26.384 64.6811 29.984C64.6811 32.864 62.1534 35.528 58.1675 35.528C54.5947 35.528 52.5045 33.872 51.9455 33.344C51.6782 33.128 51.5323 32.984 51.7997 32.552Z" fill="#3D3D3D"/>
<path d="M77.0278 15.44C82.6908 15.44 87.2114 19.928 87.2114 25.52C87.2114 31.112 82.6908 35.552 77.0278 35.552C71.3648 35.552 66.8685 31.112 66.8685 25.52C66.8685 19.928 71.3648 15.44 77.0278 15.44ZM77.0278 31.928C80.6006 31.928 83.5414 29.048 83.5414 25.52C83.5414 21.992 80.6006 19.064 77.0278 19.064C73.455 19.064 70.5385 21.992 70.5385 25.52C70.5628 29.048 73.4793 31.928 77.0278 31.928Z" fill="#3D3D3D"/>
<path d="M90.93 16.256C90.93 15.968 91.1488 15.728 91.4647 15.728H94.0653C94.357 15.728 94.6 15.968 94.6 16.256V31.928H101.818C102.134 31.928 102.353 32.168 102.353 32.456V34.736C102.353 35.024 102.134 35.264 101.818 35.264H91.4647C91.1488 35.264 90.93 35.024 90.93 34.736V16.256Z" fill="#3D3D3D"/>
<path d="M104.662 16.256C104.662 15.968 104.905 15.728 105.197 15.728H107.895C108.211 15.728 108.429 15.968 108.429 16.256V27.68C108.429 30.056 110.082 31.928 112.537 31.928C114.991 31.928 116.668 30.056 116.668 27.704V16.256C116.668 15.968 116.887 15.728 117.203 15.728H119.901C120.193 15.728 120.436 15.968 120.436 16.256V27.872C120.436 32.12 117.009 35.552 112.537 35.552C108.089 35.552 104.662 32.12 104.662 27.872V16.256Z" fill="#3D3D3D"/>
<path d="M134.071 15.44C136.938 15.44 139.004 16.328 140.924 18.032C141.167 18.248 141.167 18.584 140.949 18.824L139.223 20.576C139.029 20.792 138.737 20.792 138.518 20.576C137.327 19.544 135.748 18.92 134.168 18.92C130.546 18.92 127.849 21.92 127.849 25.424C127.849 28.928 130.571 31.88 134.192 31.88C135.893 31.88 137.327 31.232 138.518 30.296C138.737 30.104 139.053 30.128 139.223 30.296L140.973 32.096C141.192 32.288 141.143 32.648 140.949 32.84C139.029 34.688 136.598 35.552 134.071 35.552C128.408 35.552 123.863 31.112 123.863 25.52C123.863 19.928 128.408 15.44 134.071 15.44Z" fill="#3D3D3D"/>
<path d="M144.643 16.256C144.643 15.968 144.886 15.728 145.178 15.728H147.803C148.094 15.728 148.337 15.968 148.337 16.256V34.76C148.337 35.048 148.094 35.288 147.803 35.288H145.178C144.886 35.288 144.643 35.048 144.643 34.76V16.256Z" fill="#3D3D3D"/>
<path d="M162.264 15.44C167.927 15.44 172.447 19.928 172.447 25.52C172.447 31.112 167.927 35.552 162.264 35.552C156.601 35.552 152.104 31.112 152.104 25.52C152.104 19.928 156.601 15.44 162.264 15.44ZM162.264 31.928C165.837 31.928 168.777 29.048 168.777 25.52C168.777 21.992 165.837 19.064 162.264 19.064C158.691 19.064 155.774 21.992 155.774 25.52C155.774 29.048 158.691 31.928 162.264 31.928Z" fill="#3D3D3D"/>
<path d="M176.142 15.944C176.142 15.656 176.385 15.44 176.676 15.44H177.381L189.145 27.8H189.169V16.256C189.169 15.968 189.388 15.728 189.704 15.728H192.304C192.596 15.728 192.839 15.968 192.839 16.256V35.072C192.839 35.36 192.596 35.576 192.304 35.576H191.624L179.787 22.736H179.763V34.76C179.763 35.048 179.544 35.288 179.228 35.288H176.652C176.36 35.288 176.117 35.048 176.117 34.76V15.944H176.142Z" fill="#3D3D3D"/>
<path d="M198.016 16.256C198.016 15.968 198.234 15.728 198.55 15.728H210.095C210.411 15.728 210.63 15.968 210.63 16.256V18.536C210.63 18.824 210.411 19.064 210.095 19.064H201.71V23.648H208.71C209.001 23.648 209.244 23.888 209.244 24.176V26.504C209.244 26.816 209.001 27.032 208.71 27.032H201.71V31.928H210.095C210.411 31.928 210.63 32.168 210.63 32.456V34.736C210.63 35.024 210.411 35.264 210.095 35.264H198.575C198.259 35.264 198.04 35.024 198.04 34.736V16.256H198.016Z" fill="#3D3D3D"/>
<path d="M213.498 32.552L214.519 30.824C214.737 30.44 215.223 30.44 215.491 30.632C215.637 30.704 217.921 32.36 219.768 32.36C221.251 32.36 222.345 31.4 222.345 30.2C222.345 28.784 221.129 27.8 218.748 26.84C216.098 25.784 213.425 24.104 213.425 20.792C213.425 18.296 215.296 15.416 219.793 15.416C222.685 15.416 224.897 16.88 225.456 17.288C225.747 17.456 225.82 17.936 225.626 18.2L224.556 19.784C224.338 20.12 223.9 20.336 223.56 20.12C223.341 19.976 221.178 18.584 219.623 18.584C218.018 18.584 217.143 19.64 217.143 20.552C217.143 21.872 218.189 22.76 220.473 23.672C223.22 24.752 226.379 26.384 226.379 29.984C226.379 32.864 223.852 35.528 219.866 35.528C216.293 35.528 214.203 33.872 213.644 33.344C213.401 33.128 213.255 32.984 213.498 32.552Z" fill="#3D3D3D"/>
<path d="M236.271 16.376C236.271 16.016 236.563 15.704 236.952 15.704H239.431C239.795 15.704 240.111 16.016 240.111 16.376V23.912L247.233 15.968C247.354 15.824 247.524 15.68 247.767 15.68H250.587C251.121 15.68 251.413 16.256 251.048 16.688L243.66 24.896L251.583 34.256C251.875 34.616 251.632 35.24 251.073 35.24H248.01C247.719 35.24 247.548 35.12 247.5 35.048L240.111 26.048V34.568C240.111 34.928 239.795 35.24 239.431 35.24H236.952C236.563 35.24 236.271 34.928 236.271 34.568V16.376Z" fill="#3D3D3D"/>
<path d="M254.281 16.256C254.281 15.968 254.524 15.728 254.815 15.728H257.513C257.829 15.728 258.048 15.968 258.048 16.256V27.68C258.048 30.056 259.701 31.928 262.155 31.928C264.61 31.928 266.287 30.056 266.287 27.704V16.256C266.287 15.968 266.506 15.728 266.822 15.728H269.52C269.811 15.728 270.054 15.968 270.054 16.256V27.872C270.054 32.12 266.627 35.552 262.155 35.552C257.708 35.552 254.281 32.12 254.281 27.872V16.256Z" fill="#3D3D3D"/>
<path d="M272.072 34.544L280.87 15.728C280.943 15.56 281.089 15.416 281.356 15.416H281.648C281.939 15.416 282.037 15.56 282.134 15.728L290.859 34.544C291.029 34.904 290.81 35.264 290.373 35.264H287.918C287.505 35.264 287.286 35.096 287.092 34.712L285.707 31.688H277.249L275.863 34.712C275.742 35 275.499 35.264 275.037 35.264H272.582C272.12 35.288 271.902 34.904 272.072 34.544ZM284.297 28.592L281.478 22.448H281.405L278.634 28.592H284.297Z" fill="#3D3D3D"/>
<path d="M293.411 16.256C293.411 15.968 293.63 15.728 293.946 15.728H296.546C296.838 15.728 297.081 15.968 297.081 16.256V31.928H304.3C304.616 31.928 304.834 32.168 304.834 32.456V34.736C304.834 35.024 304.616 35.264 304.3 35.264H293.946C293.63 35.264 293.411 35.024 293.411 34.736V16.256Z" fill="#3D3D3D"/>
<path d="M307.702 16.256C307.702 15.968 307.945 15.728 308.237 15.728H310.862C311.153 15.728 311.396 15.968 311.396 16.256V34.76C311.396 35.048 311.153 35.288 310.862 35.288H308.237C307.945 35.288 307.702 35.048 307.702 34.76V16.256Z" fill="#3D3D3D"/>
<path d="M25.2105 28.76L24.0682 27.416C22.9016 26.072 22.9502 24.08 24.1168 22.76C22.7558 22.064 21.3947 21.512 20.2038 21.032C14.395 18.704 12.2076 16.688 12.2076 14C12.2076 12.032 14.2006 10.304 16.8254 10.304C21.2975 10.304 26.6688 14.288 27.325 14.648C27.5924 14.792 28.3215 15.176 29.2937 15.056C30.5818 14.912 31.3353 14.048 31.4811 13.856L35.6129 8.57598C35.9045 8.07198 34.0088 6.31998 33.1338 5.79198C30.9221 4.20798 25.0647 0.367981 17.4331 0.367981C6.13145 0.367981 0.492798 7.61598 0.492798 14.792C0.492798 23.48 8.41608 28.352 14.7353 30.8C19.7177 32.768 22.294 35.072 22.294 38.12C22.294 40.664 20.1552 42.464 17.2386 42.464C12.402 42.464 7.10363 38.624 6.81198 38.48C6.30158 38.12 4.89192 37.976 4.30861 38.912L0.857366 44.936C0.274057 45.944 0.492798 46.232 1.22193 46.976C2.89895 48.632 8.19734 52.544 17.7247 52.544C26.7417 52.544 32.7692 47.264 34.5192 41.192C31.3839 37.064 28.2972 32.912 25.2105 28.76Z" fill="#304D7D"/>
<path d="M55.0323 49.4L37.8003 27.248C36.7796 25.928 36.8039 24.128 37.849 22.832L53.5011 3.488C53.7684 3.152 53.7927 2.672 53.5983 2.264C53.4039 1.88 53.0393 1.664 52.6018 1.664H43.3661C43.0987 1.664 42.5883 1.952 42.3696 2.192L26.1828 22.136C26.0856 22.232 26.0126 22.352 25.9154 22.448L25.0405 23.312L24.9918 23.36C24.044 24.296 23.9711 25.808 24.846 26.816L25.9883 28.16C26.0369 28.232 26.0856 28.28 26.1342 28.352L34.7623 39.944L43.0258 51.032C43.123 51.128 43.5848 51.32 43.9251 51.32H54.0601C54.5219 51.32 54.9108 51.08 55.1052 50.672C55.3239 50.192 55.2996 49.736 55.0323 49.4Z" fill="#304D7D"/>
</svg>
