<svg width="22" height="22" viewBox="0 0 22 22" fill="none" xmlns="http://www.w3.org/2000/svg">
<g clip-path="url(#clip0)">
<path d="M6.46645 16.5332C12.0256 16.5332 16.5317 12.0264 16.5317 6.46721C16.5317 4.0039 15.6441 1.75051 14.1755 0.000762939C18.7132 1.45747 21.9993 5.70786 21.9993 10.7296C21.9993 16.9544 16.9536 22.0001 10.7288 22.0001C5.7071 22.0001 1.45671 18.714 0 14.1762C1.74974 15.6456 4.00384 16.5332 6.46645 16.5332Z" fill="#FFD93B"/>
<path d="M17.6949 1.88324C19.2023 3.79852 20.1082 6.2097 20.1082 8.83713C20.1082 15.062 15.0625 20.1076 8.83768 20.1076C6.21025 20.1076 3.79907 19.2018 1.88379 17.6943C3.94629 20.3126 7.13795 21.9997 10.7297 21.9997C16.9546 21.9997 22.0002 16.954 22.0002 10.7292C22.0002 7.1374 20.3132 3.94644 17.6949 1.88324Z" fill="#F4C534"/>
<path d="M5.64082 4.40012L6.80168 6.75354L9.39812 7.13039L7.51947 8.96185L7.96254 11.5477L5.64082 10.327L3.31839 11.5477L3.76146 8.96185L1.88281 7.13039L4.47925 6.75354L5.64082 4.40012Z" fill="#FFD83B"/>
<path d="M12.1889 3.64709L12.7905 4.86713L14.1366 5.06225L13.1624 6.01178L13.3927 7.35156L12.1889 6.71901L10.9851 7.35156L11.2154 6.01178L10.2412 5.06225L11.5873 4.86713L12.1889 3.64709Z" fill="#FFD83B"/>
</g>
<defs>
<clipPath id="clip0">
<rect width="22" height="22" fill="white"/>
</clipPath>
</defs>
</svg>
